<svg viewBox="0 0 512 512" xmlns="http://www.w3.org/2000/svg"><path d="m188.05851 423.25583c2.66786-3.8805 7.32446-10.23481 13.87278-17.36523 21.53676-23.37999 40.16314-29.44327 86.77761-58.98355 16.34659-10.38033 24.64115-15.6675 29.6858-20.66365 5.96626-5.96626 33.80883-31.14099 29.83132-67.1811-3.00739-27.21199-14.35784-50.39796-36.13713-68.49078-26.5814-22.07032-56.60674-26.5329-89.00887-19.40248-21.34275 4.7051-37.68935 17.75328-51.65913 34.29389-5.91777 6.9849-20.90618 25.7568-21.43973 51.65912-.0476 3.34692.0971 6.11178.29112 8.10054 8.58559.19403 17.12268.38805 25.70827.58207.3881-3.97751 1.30972-9.55572 3.44397-16.00705 1.45509-4.36556 6.9849-19.49949 21.87628-32.7902 14.40636-12.85415 29.49179-16.63763 33.85734-17.70476 26.92094-6.69387 47.82712 3.68646 65.09533 20.66364 14.0668 13.82427 21.24572 33.51779 17.07419 53.74488-3.1044 15.27946-13.09668 28.13361-26.09635 36.91323-28.47313 19.30548-57.86789 37.25277-86.34104 56.55825-21.00319 14.26083-37.49531 24.10759-46.46894 44.5287-3.58947 8.14905-5.04466 15.57049-5.67524 20.61514.19397 6.83938.4365 13.63025.63065 20.46963h118.01561c16.92864-1.50369 44.81972-6.25731 74.89362-22.55539 34.58488-18.7234 55.68513-43.55858 66.21098-58.98356 14.16381-20.80917 23.81655-43.07352 30.26787-67.52065 7.03336-26.72692 7.08187-53.55086 1.98876-79.59869-5.96632-30.89846-19.40253-59.2746-39.92061-84.15828-17.5593-21.24573-38.12588-38.46543-62.62152-50.25244-15.52204-7.469957-32.30514-13.19369-49.18531-16.589125-16.9772-3.443941-34.92448-5.287178-52.09568-3.929004-5.67522.436556-32.11111 2.619336-63.10658 16.977175-13.09668 6.063276-60.34174 29.734314-89.445468 81.344914-20.615137 36.57369-24.204586 70.77057-24.350115 104.09434-.291134 80.13227-.53349 160.26452-.82462 240.3483-20.760645-.09701-41.472845-.19403-62.23345573-.29104-.33954349-89.49397-.63067778-178.98794-.97022127-268.53041 1.2611616-21.82779 5.7237332-51.85314 19.450992-84.74035 11.981033-28.76419 26.09639-49.08829 33.760342-58.11044 14.745904-17.36523 31.529048-33.275268 49.136786-47.827132 23.47704-19.402485 50.93152-31.577542 80.18079-40.599698 35.60356-11.05941668 71.69217-14.9399137 108.07183-9.313193 32.0626 4.947634 62.86405 14.939914 91.57972 31.577542 23.18598 13.436222 44.09215 29.297753 62.08795 48.700238 8.68263 9.3617 16.63764 19.353973 23.81661 29.928333 0 0 10.08929 14.8914 18.04426 31.43203 31.14099 64.46475 25.46577 133.39208 25.46577 133.39208-1.06719 12.80564-4.41408 41.23029-17.8988 74.60256-5.09315 12.56311-19.1114 44.38318-48.21517 76.88235-17.07419 19.06294-32.59618 30.80144-37.05875 34.09987-6.64536 4.89913-29.29775 21.19722-63.25211 33.5663-27.06646 9.84676-51.5621 13.67876-70.3825 15.03693-59.3716-.14503-118.79171-.29104-178.16332-.43655-.533491-87.16573-1.018582-174.33134-1.552258-261.49706 1.794803-18.67484 7.906508-55.7821 32.935718-88.1843 10.0408-12.99961 20.80918-22.21579 23.86506-24.73816 13.92128-11.6415 29.6858-20.71212 47.39057-27.64854 25.65979-10.040742 52.09567-13.630251 78.43456-9.410163 30.80143 4.947633 59.22607 16.637623 83.43068 38.319913 24.78666 22.26435 41.66683 48.21512 50.83451 80.22923 7.1304 24.83523 7.51846 49.81592 2.66784 74.36006-5.57822 28.13361-18.23834 53.30834-38.02888 75.33015-14.84289 16.54063-32.11111 29.00667-51.12555 38.999-14.64887 7.71244-28.42463 9.84677-37.5438 11.78696-13.43621 2.86192-25.07771 3.97756-33.95436 4.36557h-65.96848z" fill="#97c23a" stroke-width="4.85062"/></svg>